# xmcd
#
# Track frame offsets: 
#        150
#        10826
#        21565
#        32345
#        45924
#        57335
#        67327
#        81016
#        93722
#        105452
#        116377
#        126934
#        141660
#        153943
#        161649
#        172225
#        183773
#        196820
#        207354
#        219121
#        230499
#        241544
#        252702
#        266100
#        280644
#        293912
#        305058
#        314974
#        323732
#        335887
#
# Disc length: 4586 seconds
#
# Revision: 0
# Processed by: cddbd v1.5.2PL0 Copyright (c) Steve Scherf et al.
# Submitted via: ExactAudioCopy v0.99pb5
#
DISCID=c311e81e
DTITLE=Various Artist - The Finbarr Golden Treasury of Doo Wop, Vol.14
DYEAR=2013
DGENRE=Doo Wop
TTITLE0=The Preludes Five/Starlight
TTITLE1=The Carnations/Long Tall Girl
TTITLE2=The Marcels/Crazy Bells
TTITLE3=Frankie and The C Notes/Forever And Ever
TTITLE4=The Cleftones/Please Say You Want Me
TTITLE5=The Earls/Cross My Heart
TTITLE6=The Silhouettes/Voodoo Eyes
TTITLE7=The Thrillers/Lizabeth
TTITLE8=The Jive Five/People From Another World
TTITLE9=The Sheppards/Island Of Love
TTITLE10=The Blue Jays/Lover's Island
TTITLE11=The Deltones/Listen To The Rain
TTITLE12=The Imaginations/Hey You
TTITLE13=The Tokens/Tonight I Fell In Love
TTITLE14=The Crests/If My Heart Could Write A Letter
TTITLE15=The Charts/I Told You So
TTITLE16=Tex and The Chex/I Do Love You
TTITLE17=Billy Storm and The Storms/Dear One
TTITLE18=The Creators/Wear My Ring
TTITLE19=The Plants/I Searched The Seven Seas
TTITLE20=The Satintones/My Beloved
TTITLE21=The Sunbeams/Tell Me Why
TTITLE22=The Heralds/Eternal Love
TTITLE23=The Five Chances/All I Want
TTITLE24=The Leaders/A Lover Of The Time
TTITLE25=Nathaniel Mayer and The Fabulous Twilights/My Last Dance With Y
TTITLE25=ou
TTITLE26=The Tokens/Doom Lang
TTITLE27=Maurice Williams and The Zodiacs/Little Mama
TTITLE28=The Marcels/Over The Rainbow
TTITLE29=The Earls/Life Is But A Dream
EXTD=
EXTT0=
EXTT1=
EXTT2=
EXTT3=
EXTT4=
EXTT5=
EXTT6=
EXTT7=
EXTT8=
EXTT9=
EXTT10=
EXTT11=
EXTT12=
EXTT13=
EXTT14=
EXTT15=
EXTT16=
EXTT17=
EXTT18=
EXTT19=
EXTT20=
EXTT21=
EXTT22=
EXTT23=
EXTT24=
EXTT25=
EXTT26=
EXTT27=
EXTT28=
EXTT29=
PLAYORDER=
